<?xml version="1.0" encoding="UTF-8" standalone="no"?>
<svg xmlns="http://www.w3.org/2000/svg" xmlns:inkscape="http://www.inkscape.org/namespaces/inkscape" xmlns:ns1="http://sodipodi.sourceforge.net/DTD/sodipodi-0.dtd" xmlns:xlink="http://www.w3.org/1999/xlink" width="236mm" height="270mm" viewBox="0 0 236 270" version="1.1" id="svg1" xml:space="preserve"><ns1:namedview id="namedview1" pagecolor="#ffffff" bordercolor="#000000" borderopacity="0.25" inkscape:document-units="mm" showguides="true" showgrid="true"><inkscape:grid id="grid1928" units="mm" originx="0" originy="0" spacingx="0.99999998" spacingy="1" empcolor="#0099e5" empopacity="0.30196078" color="#0099e5" opacity="0.14902" empspacing="5" enabled="true" visible="true" /><ns1:guide position="255,10.000008" orientation="1,0" id="guide7" inkscape:locked="false" /></ns1:namedview><defs id="defs1"><linearGradient id="swatch2152" inkscape:swatch="solid"><stop style="stop-color:#cd0000;stop-opacity:1;" offset="0" id="stop2152" /></linearGradient><filter id="black-and-white-filter-0" color-interpolation-filters="sRGB" x="-0.023569274" y="-0.031425406" width="1.0471385" height="1.0471385"><feColorMatrix type="saturate" values="0" id="feColorMatrix2" /><feComponentTransfer id="feComponentTransfer2"><feFuncR type="discrete" tableValues="0 0 0 0 0 0 0 0 0 0 0 0 0 0 0 0 0 0 0 0 0 0 0 0 0 0 0 0 0 0 0 0 0 0 0 0 0 0 0 0 0 0 0 0 0 0 0 0 0 0 0 0 0 0 0 0 0 0 0 0 0 0 0 0 0 0 0 0 0 0 0 0 0 0 0 0 0 0 0 0 0 0 0 0 0 0 0 0 0 0 0 0 0 0 0 0 0 0 0 0 0 0 0 0 0 0 0 0 0 0 0 0 0 0 0 0 0 0 0 0 0 0 0 0 0 0 0 0 0 0 0 0 0 0 0 0 0 0 0 0 0 0 0 0 0 0 0 0 0 0 0 0 0 0 0 0 0 0 0 0 0 0 0 0 0 0 0 0 0 0 0 0 0 0 0 0 0 0 0 0 0 0 0 0 0 0 0 0 0 0 0 0 0 0 0 0 0 0 0 0 0 0 0 0 0 0 0 0 0 0 0 0 0 0 0 0 0 0 0 0 0 0 0 0 0 0 0 0 0 0 0 0 0 0 0 0 0 0 0 0 0 0 0 0 0 0 0 0 0 0 1 1 1 1 1 " id="feFuncR2" /><feFuncG type="discrete" tableValues="0 0 0 0 0 0 0 0 0 0 0 0 0 0 0 0 0 0 0 0 0 0 0 0 0 0 0 0 0 0 0 0 0 0 0 0 0 0 0 0 0 0 0 0 0 0 0 0 0 0 0 0 0 0 0 0 0 0 0 0 0 0 0 0 0 0 0 0 0 0 0 0 0 0 0 0 0 0 0 0 0 0 0 0 0 0 0 0 0 0 0 0 0 0 0 0 0 0 0 0 0 0 0 0 0 0 0 0 0 0 0 0 0 0 0 0 0 0 0 0 0 0 0 0 0 0 0 0 0 0 0 0 0 0 0 0 0 0 0 0 0 0 0 0 0 0 0 0 0 0 0 0 0 0 0 0 0 0 0 0 0 0 0 0 0 0 0 0 0 0 0 0 0 0 0 0 0 0 0 0 0 0 0 0 0 0 0 0 0 0 0 0 0 0 0 0 0 0 0 0 0 0 0 0 0 0 0 0 0 0 0 0 0 0 0 0 0 0 0 0 0 0 0 0 0 0 0 0 0 0 0 0 0 0 0 0 0 0 0 0 0 0 0 0 0 0 0 0 0 0 1 1 1 1 1 " id="feFuncG2" /><feFuncB type="discrete" tableValues="0 0 0 0 0 0 0 0 0 0 0 0 0 0 0 0 0 0 0 0 0 0 0 0 0 0 0 0 0 0 0 0 0 0 0 0 0 0 0 0 0 0 0 0 0 0 0 0 0 0 0 0 0 0 0 0 0 0 0 0 0 0 0 0 0 0 0 0 0 0 0 0 0 0 0 0 0 0 0 0 0 0 0 0 0 0 0 0 0 0 0 0 0 0 0 0 0 0 0 0 0 0 0 0 0 0 0 0 0 0 0 0 0 0 0 0 0 0 0 0 0 0 0 0 0 0 0 0 0 0 0 0 0 0 0 0 0 0 0 0 0 0 0 0 0 0 0 0 0 0 0 0 0 0 0 0 0 0 0 0 0 0 0 0 0 0 0 0 0 0 0 0 0 0 0 0 0 0 0 0 0 0 0 0 0 0 0 0 0 0 0 0 0 0 0 0 0 0 0 0 0 0 0 0 0 0 0 0 0 0 0 0 0 0 0 0 0 0 0 0 0 0 0 0 0 0 0 0 0 0 0 0 0 0 0 0 0 0 0 0 0 0 0 0 0 0 0 0 0 0 1 1 1 1 1 " id="feFuncB2" /></feComponentTransfer></filter><linearGradient inkscape:collect="always" xlink:href="#swatch2152" id="linearGradient1" gradientUnits="userSpaceOnUse" x1="87.838745" y1="50.107613" x2="104.99991" y2="50.107613" /></defs><g id="g2182-1" transform="matrix(1.4136663,0,0,1.4136663,53.411138,-214.59223)" style="display:inline;fill:#cd0000;fill-opacity:1"><g id="g2152-5" transform="translate(-59.805228,164.07978)" style="fill:#cd0000;fill-opacity:1"><path style="opacity:1;fill:#cd0000;fill-opacity:1;fill-rule:nonzero;stroke:#ff0808;stroke-width:0;stroke-miterlimit:4;stroke-dasharray:none;stroke-opacity:1" d="M 104.94441,10.065687 122.16126,65.31802 105,89.999997 Z" id="path2141-2" ns1:nodetypes="cccc" /><path style="opacity:1;fill:#cd0000;fill-opacity:1;fill-rule:nonzero;stroke:url(#linearGradient1);stroke-width:0;stroke-linejoin:miter;stroke-miterlimit:6;stroke-dasharray:none;stroke-dashoffset:0;stroke-opacity:1;paint-order:markers fill stroke" d="m 104.94441,10.065687 0.0555,80.083849 L 87.838742,65.31802 Z" id="path2142-7" /><path style="opacity:1;fill:#cd0000;fill-opacity:1;fill-rule:nonzero;stroke:#ff0808;stroke-width:0;stroke-miterlimit:4;stroke-dasharray:none;stroke-opacity:1" d="M 122.16126,65.31802 177.5,65.385071 105,89.999997 Z" id="path2143-6" ns1:nodetypes="cccc" /><path style="opacity:1;fill:#cd0000;fill-opacity:1;fill-rule:nonzero;stroke:#ff0808;stroke-width:0;stroke-miterlimit:4;stroke-dasharray:none;stroke-opacity:1" d="M 32.500001,65.385068 87.838742,65.31802 104.99991,90.149536 Z" id="path2144-1" /><path style="opacity:1;fill:#cd0000;fill-opacity:1;fill-rule:nonzero;stroke:#ff0808;stroke-width:0;stroke-miterlimit:4;stroke-dasharray:none;stroke-opacity:1" d="M 32.500001,65.385068 104.99988,90.149536 77.232501,99.640534 Z" id="path2145-4" /><path style="opacity:1;fill:#cd0000;fill-opacity:1;fill-rule:nonzero;stroke:#ff0808;stroke-width:0;stroke-miterlimit:4;stroke-dasharray:none;stroke-opacity:1" d="M 77.232501,99.640534 60.192533,154.99999 104.99991,90.149536 Z" id="path2146-2" /><path style="opacity:1;fill:#cd0000;fill-opacity:1;fill-rule:nonzero;stroke:#ff0808;stroke-width:0;stroke-miterlimit:4;stroke-dasharray:none;stroke-opacity:1" d="M 60.192533,154.99999 105,120.85302 104.99988,90.149536 Z" id="path2147-3" /><path style="opacity:1;fill:#cd0000;fill-opacity:1;fill-rule:nonzero;stroke:#ff0808;stroke-width:0;stroke-miterlimit:4;stroke-dasharray:none;stroke-opacity:1" d="m 105,89.999997 v 30.853023 l 44.80746,34.14697 z" id="path2148-2" ns1:nodetypes="cccc" /><path style="opacity:1;fill:#cd0000;fill-opacity:1;fill-rule:nonzero;stroke:#ff0808;stroke-width:0;stroke-miterlimit:4;stroke-dasharray:none;stroke-opacity:1" d="M 149.80746,154.99999 132.7675,99.640537 105,89.999997 Z" id="path2149-2" ns1:nodetypes="cccc" /><path style="opacity:1;fill:#cd0000;fill-opacity:1;fill-rule:nonzero;stroke:#ff0808;stroke-width:0;stroke-miterlimit:4;stroke-dasharray:none;stroke-opacity:1" d="M 177.5,65.385071 132.7675,99.640537 105,89.999997 Z" id="path2150-1" ns1:nodetypes="cccc" /></g></g><g inkscape:label="Vrstva 1" inkscape:groupmode="layer" id="layer1" transform="translate(62.863711,3.6548669)" style="display:inline"><g id="g1" transform="translate(-62.877045,17.799559)" style="display:inline"><path style="display:inline;mix-blend-mode:darken;fill-opacity:0.9;stroke:#000000;stroke-width:13.6075;stroke-dasharray:none;stroke-opacity:1;paint-order:fill;filter:url(#black-and-white-filter-0)" d="M 600,433 H 100 L 350.001,0 Z M 102.088,431.883 H 597.913 L 350.001,2.498 Z" transform="matrix(0.29395571,0,0,0.29395571,14.417348,51.839642)" id="path2" /><path d="m 72.727287,12.74514 h 6.042023 l 4.118195,25.550842 h 0.390777 L 82.526787,12.74514 h 6.553039 V 61.742638 H 83.278282 L 78.76931,34.568565 h -0.240479 l 0.721436,27.174073 h -6.52298 z" id="text1" style="font-size:61.5625px;font-family:'Gill Sans MT Ext Condensed Bold';-inkscape-font-specification:'Gill Sans MT Ext Condensed Bold, ';fill-rule:evenodd;stroke:#000000;stroke-width:0;stroke-linecap:round;stroke-miterlimit:10;stroke-opacity:0;paint-order:markers fill stroke" transform="scale(1.4542349,0.68764682)" aria-label="N" /><path d="m 31.514283,183.47908 5.67778,5.2704 -22.92218,24.69394 -5.6777795,-5.2704 z" id="text2" style="font-size:55.2533px;font-family:'Gill Sans MT Ext Condensed Bold';-inkscape-font-specification:'Gill Sans MT Ext Condensed Bold, ';fill-rule:evenodd;stroke:#000000;stroke-width:5.22079;stroke-linecap:round;stroke-miterlimit:10;stroke-opacity:0;paint-order:markers fill stroke" aria-label="I" /><path d="m 227.85627,203.25815 q -0.99767,2.00143 -3.18485,4.16048 -6.02371,5.94626 -12.85434,6.27006 -6.79477,0.2884 -12.55978,-5.55169 -6.44751,-6.53149 -4.43726,-15.10916 1.32198,-5.5456 5.62464,-9.79293 1.97204,-1.94669 4.32254,-3.36656 l 3.00593,3.04509 q -1.48047,0.93862 -2.59198,2.03583 -2.18719,2.15907 -2.62534,4.79903 -0.73647,4.56098 4.52028,9.8862 5.54718,5.61944 9.1338,5.73864 3.60794,0.0691 6.54809,-2.83324 1.11152,-1.09723 1.9326,-2.48866 z" id="text3" style="font-size:66.0914px;font-family:'Gill Sans MT Ext Condensed Bold';-inkscape-font-specification:'Gill Sans MT Ext Condensed Bold, ';white-space:pre;inline-size:17.2072;fill-rule:evenodd;stroke:#000000;stroke-width:6.24486;stroke-linecap:round;stroke-miterlimit:10;stroke-opacity:0;paint-order:markers fill stroke" aria-label="C" /></g></g><style type="text/css" id="style1">
	.st0{clip-path:url(#SVGID_2_);fill:#E50046;}
</style><rect style="stroke:none;fill:none" transform="scale(0.26458333)" width="524.219" height="1273.1059" x="-386.07863" y="-633.42308" id="rect13" /><style type="text/css" id="style1-0">
	.st0{clip-path:url(#SVGID_2_);fill:#E50046;}
</style><path style="fill:#000000;stroke-width:1;stroke-dasharray:none;stroke:#000000;stroke-opacity:1" d="m 104.51009,193.16162 c -0.52258,-0.31864 -0.58638,-0.97009 -0.13719,-1.40058 0.18826,-0.18041 0.18826,-0.18041 2.77971,-0.19782 2.59145,-0.0174 2.59145,-0.0174 2.61096,-1.48543 0.0368,-2.77386 0.65726,-3.31232 3.8259,-3.32053 1.64016,-0.004 1.64016,-0.004 1.65574,-17.50442 0.0156,-17.50014 0.0156,-17.50014 -4.33249,-17.50122 -7.24871,-0.002 -7.31976,-0.0712 -7.11632,-6.96185 0.19211,-6.50629 0.0562,-6.63682 -3.34003,-3.21027 -1.51144,1.52491 -2.328291,2.30466 -2.494802,2.38151 -0.3964,0.18296 -5.904019,0.17724 -6.205301,-0.007 -0.580324,-0.35382 -0.573635,-0.74978 0.02997,-1.77304 0.456453,-0.77384 1.508121,-2.61331 1.896175,-3.31663 0.228055,-0.41332 0.22899,-0.41796 0.125164,-0.61894 -0.144346,-0.27941 -1.321018,-2.35825 -1.971345,-3.48279 -0.678938,-1.17401 -0.684852,-1.56845 -0.02858,-1.9031 0.286222,-0.14595 5.800786,-0.16711 6.144312,-0.0236 0.121517,0.0508 1.131283,1.01995 2.514887,2.41382 2.31186,2.32897 2.31186,2.32897 4.96301,2.32897 2.54601,0 2.65116,-0.004 2.65116,-0.11544 0,-0.18955 0.23863,-0.43468 0.48299,-0.49614 0.43448,-0.10924 4.02795,0.008 4.29739,0.14008 0.87016,0.42693 1.06059,1.65406 0.35554,2.29104 -0.70822,0.63983 -5.13591,0.61449 -5.13591,-0.0294 0,-0.0331 -0.55946,-0.0572 -1.3325,-0.0572 -1.33251,0 -1.33251,0 -1.31522,4.8431 0.0201,5.632 -0.0117,5.39117 0.75999,5.74735 0.67749,0.31268 9.06507,0.14822 9.02729,-0.17701 -0.18559,-1.59779 0.89936,-2.89348 2.42286,-2.89348 1.49163,0 2.44476,1.0629 2.44476,2.72632 0,0.46115 0,0.46115 3.7445,0.46115 3.74451,0 3.74451,0 3.74451,-1.67722 0,-2.1194 0.0548,-2.26757 0.8665,-2.34449 0.3404,-0.0322 0.3404,-0.0322 0.37361,-1.70337 0.0461,-2.31712 0.36367,-3.02501 1.61942,-3.60911 0.35759,-0.16634 0.35759,-0.16634 0.35824,-2.16238 6.5e-4,-1.99604 6.5e-4,-1.99604 -1.60082,-1.99604 -1.60148,0 -1.60148,0 -1.64163,0.20117 -0.91049,4.56062 -7.89372,3.77042 -8.06763,-0.91292 -0.18357,-4.94311 7.29231,-6.12307 8.06781,-1.2734 0.0674,0.4211 2.76455,0.39118 3.1395,-0.0348 0.55344,-0.62873 1.49557,-0.61271 1.94241,0.033 0.40249,0.58162 2.99916,0.35594 3.20557,-0.2786 1.45731,-4.47995 8.01599,-3.41456 8.04139,1.30624 0.0251,4.65773 -6.34716,5.86723 -7.98905,1.51633 -0.19853,-0.52609 -0.19853,-0.52609 -1.78121,-0.54261 -1.5827,-0.0165 -1.5827,-0.0165 -1.5827,1.9837 0,2.00024 0,2.00024 0.26304,2.12824 1.27589,0.62089 1.65708,1.45928 1.71176,3.76495 0.0367,1.54731 0.0367,1.54731 0.34617,1.57888 1.27614,0.13012 1.21813,3.5026 -0.0826,4.80335 -0.97647,0.97647 -0.46933,0.91819 -8.16456,0.93821 -6.5761,0.0171 -6.5761,0.0171 -6.5761,10.41344 0,11.49461 -0.34545,10.4075 3.31126,10.42034 3.82564,0.0135 3.74451,0.0273 3.74451,-0.64293 0,-0.61892 0,-0.61892 -0.74976,-0.61892 -1.85929,0 -1.90093,-0.67778 -0.18689,-3.04173 0.25334,-0.34938 0.25334,-0.34938 -0.24565,-0.37204 -1.33128,-0.0604 -1.33189,-0.83194 -0.003,-2.69814 0.49613,-0.69628 0.49613,-0.69628 0.17495,-0.69664 -1.00182,-7.2e-4 -1.45627,-0.6788 -0.99219,-1.47964 0.18399,-0.3175 0.87884,-1.33888 1.14661,-1.68544 0.23552,-0.30482 0.24001,-0.30056 -0.31613,-0.30056 -2.09083,0 -0.75116,-4.32161 1.80582,-5.82537 2.16355,-1.27238 7.4017,-1.11524 9.35662,0.28067 1.22876,0.87741 2.08056,2.271 2.35699,3.8562 0.22501,1.29031 -6.4e-4,1.6885 -0.95689,1.6885 -0.49826,0 -0.49661,-0.003 -0.25957,0.30056 1.64939,2.10447 1.69873,3.16344 0.14749,3.16508 -0.32563,3.6e-4 -0.32563,3.6e-4 -0.024,0.41813 1.54842,2.1447 1.59425,2.8823 0.18538,2.9833 -0.4737,0.034 -0.4737,0.034 0.11117,0.86952 0.91657,1.30944 1.05654,1.69374 0.77335,2.12323 -0.22344,0.33887 -0.3469,0.38095 -1.2154,0.41437 -0.80461,0.031 -0.80461,0.031 -0.83556,1.48542 -0.0398,1.8716 -0.27831,2.36595 -1.34916,2.79667 -0.41864,0.16838 -6.4453,0.2611 -7.22297,0.11112 -0.6834,-0.1318 -1.33691,-0.62425 -1.52736,-1.15092 -0.0758,-0.20955 -0.0758,-0.20955 -3.65341,-0.20955 -3.57764,0 -3.57764,0 -3.56188,6.20474 0.0158,6.20474 0.0158,6.20474 1.65594,6.20534 3.19527,0.002 3.89923,0.64971 3.89923,3.59221 0,1.20388 0,1.20388 2.49118,1.2041 2.36162,2.2e-4 2.50149,0.007 2.68933,0.12105 0.5514,0.33621 0.5151,1.23501 -0.0609,1.50835 -0.36731,0.17429 -25.91956,0.15704 -26.20614,-0.0177 z m 19.35333,-2.86526 c -3.7e-4,-2.05223 0.71438,-1.84131 -6.23979,-1.84131 -6.26183,0 -5.82472,-0.0356 -6.09199,0.49637 -0.11072,0.22035 -0.16939,2.45477 -0.0672,2.557 0.0227,0.0227 2.82179,0.0412 6.22022,0.0412 6.17894,0 6.17894,0 6.17871,-1.25332 z m -5.45928,-22.32778 c 0.0129,-13.4768 -8.2e-4,-18.85085 -0.0498,-19.01948 -0.18385,-0.63753 -1.13414,-0.63856 -1.40031,-0.002 -0.0873,0.20893 -0.13029,37.30661 -0.0436,37.63803 0.0448,0.17108 0.12538,0.18771 0.8568,0.17671 0.61894,-0.01 0.61894,-0.01 0.63692,-18.79374 z m 17.19099,5.97544 c 0.15119,-0.15118 0.15192,-0.15784 0.15192,-1.39257 0,-1.24067 0,-1.24067 -3.52788,-1.24067 -3.52789,0 -3.52789,0 -3.52353,1.19143 0.005,1.29117 0.0192,1.3796 0.24638,1.50542 0.32279,0.17876 6.4695,0.12001 6.65311,-0.0636 z m 1.80884,-4.44361 c -0.0496,-0.0765 -0.29359,-0.46651 -0.54207,-0.86649 -0.49654,-0.79929 -8.51439,-1.21167 -9.02528,-0.46419 -0.25903,0.37898 -0.87833,1.38933 -0.87833,1.43294 0,0.0204 2.37059,0.037 5.26799,0.037 5.268,0 5.268,0 5.17769,-0.13926 z m 0.0141,-3.35668 c 0,-1.32481 -1.01744,-1.64193 -5.21732,-1.62609 -4.56022,0.0172 -4.27151,-0.069 -5.18565,1.54774 -0.0581,0.10278 0.20584,0.10831 5.17087,0.10831 2.87766,0 5.2321,-0.0135 5.2321,-0.03 z m 0,-3.40233 c 0,-0.0451 -0.87883,-1.47713 -0.97977,-1.5965 -0.0966,-0.1142 -8.23932,-0.17327 -8.40018,-0.061 -0.0359,0.025 -0.25596,0.35184 -0.48923,0.72629 -0.23326,0.37445 -0.46479,0.74348 -0.51451,0.82008 -0.0904,0.13926 -0.0904,0.13926 5.14665,0.13926 2.88038,0 5.23704,-0.0127 5.23704,-0.0283 z m 0.22869,-3.54771 c -0.26647,-1.33238 -1.51717,-2.58916 -2.902,-2.91613 -0.38974,-0.092 -4.62923,-0.093 -5.07569,-0.002 -1.34555,0.27678 -2.58045,1.5071 -2.92973,2.91885 -0.0421,0.1702 -0.0421,0.1702 5.44984,0.1702 5.49195,0 5.49195,0 5.45758,-0.17181 z m -4.39464,-9.33077 c 0.56296,-0.28053 0.76186,-0.69309 0.76186,-1.58025 0,-0.6149 0,-0.6149 -2.38287,-0.6149 -2.38287,0 -2.38287,0 -2.38287,0.42355 0,0.23294 -0.0182,0.76211 -0.0405,1.17595 -0.0412,0.76775 2.84571,1.19294 4.04433,0.59565 z m -0.45637,-4.67628 c 0.1088,-2.27458 -0.19174,-3.0892 -1.13971,-3.0892 -0.93148,0 -1.1668,0.48915 -1.16858,2.42928 -0.002,1.81191 2.22277,2.44784 2.30829,0.65992 z m -34.980941,-3.41018 c 2.606591,-2.39274 2.606631,-2.46419 0.0014,-2.46419 -2.723422,0 -2.288848,-0.24466 -3.590808,2.02163 -0.596934,1.03907 -0.578124,0.93733 -0.178668,0.96641 2.169926,0.15803 3.17785,0.0179 3.768021,-0.52385 z M 124.5605,137.7769 c 2.09171,-1.02976 1.64977,-4.13139 -0.64563,-4.53111 -2.15293,-0.37493 -3.5862,2.36676 -2.08735,3.99282 0.71522,0.77591 1.81162,0.99186 2.73298,0.53829 z m 16.0788,0.0557 c 1.561,-0.58652 2.00727,-2.75169 0.81325,-3.94571 -0.96433,-0.96433 -2.49052,-0.91921 -3.43557,0.10156 -1.71,1.847 0.2583,4.73239 2.62232,3.84415 z m -40.764539,-0.70206 c -2.777568,-2.86132 -2.418991,-2.64592 -4.404545,-2.64592 -0.995629,0 -1.810229,0.0237 -1.810229,0.0526 0,0.0398 1.016147,1.82479 1.670165,2.93381 0.05914,0.10027 0.246528,0.10831 2.522041,0.10831 2.458157,0 2.458157,0 2.022568,-0.44873 z" id="path3" /><path d="m 59.508055,214.67398 0.241156,-0.60289 q -0.568439,0 -0.964624,0.10335 -0.396185,0.0861 -0.930174,0.29284 -0.654567,0.24115 -0.895723,0.24115 -0.292832,0 -0.482312,-0.22393 -0.18948,-0.22393 -0.18948,-0.55121 0,-0.67179 0.533989,-1.37804 0.551214,-0.72346 1.343584,-1.0163 1.033526,-0.41341 2.652718,-0.65456 1.636416,-0.25839 3.238382,-0.25839 1.808671,0 3.238382,0.25839 1.446937,0.25838 2.566591,0.82682 1.119653,0.56844 1.9637,1.41248 0.844046,0.84405 1.291908,1.9637 0.465087,1.11966 0.465087,2.37711 0,1.13688 -0.465087,2.54937 -0.447862,1.41248 -1.257457,2.75607 -0.809596,1.34358 -1.77422,2.27376 -1.119654,1.0852 -2.842198,1.84312 -1.705318,0.74069 -3.117804,0.74069 -0.602891,0 -1.067977,-0.2067 -0.447862,-0.22393 -0.447862,-0.53399 0,-0.48231 0.361734,-0.89572 0.361735,-0.43064 1.326359,-1.05076 0.826821,-0.48231 1.55029,-1.1541 0.861272,-0.9474 1.257457,-2.01538 0.41341,-1.06797 0.41341,-2.54936 0,-1.41249 -0.482312,-2.39434 -0.482312,-0.98185 -1.567515,-1.75699 l -2.359885,7.64809 -0.430636,1.34359 q -0.275607,0.79237 -0.740694,2.72162 -0.844046,3.32451 -1.58474,4.61641 -0.327284,0.56844 -0.844047,1.11966 -0.826821,0.72347 -2.101503,1.27468 -1.257457,0.53399 -2.170406,0.53399 -0.60289,0 -0.964624,-0.34451 -0.344509,-0.36173 -0.344509,-0.99908 0,-0.70624 0.344509,-2.06705 0.361734,-1.36081 1.464162,-4.8748 l 0.310058,-0.96462 0.327283,-1.05075 z m 25.373072,10.7659 -0.327283,0.10335 q -1.240232,0.34451 -1.791446,0.34451 -0.671792,0 -0.671792,-0.34451 0,-0.12057 0.275607,-0.63734 0.964625,-1.46416 0.964625,-2.75607 0,-0.74069 -0.258382,-1.34358 -0.258382,-0.62012 -0.568439,-0.62012 -0.275607,0 -0.844047,0.58567 -1.601966,1.73977 -2.549365,3.56566 -0.930174,1.8259 -0.930174,3.25561 0,0.9474 0.37896,1.56752 0.396185,0.62011 0.98185,0.62011 0.499538,0 1.860348,-1.06797 1.378035,-1.06798 3.083353,-2.82498 l 0.465087,-0.37896 z m -1.033526,3.94463 v 0.0689 l -0.0689,-0.0689 q -1.601966,1.87757 -2.94555,3.08335 -1.326359,1.18856 -2.463238,1.79145 -1.119653,0.60289 -2.067052,0.60289 -1.929249,0 -3.186707,-1.29191 -1.257457,-1.29191 -1.257457,-3.27283 0,-1.22301 0.620116,-2.89388 0.620116,-1.67087 1.705319,-3.27283 1.808671,-2.61827 4.547516,-4.44416 2.824971,-1.87758 5.443238,-1.87758 2.204856,0 3.617342,0.91295 1.429712,0.89572 1.429712,2.27376 0,1.0163 -0.706243,2.15318 0.930173,0 1.17133,0.2067 0.241156,0.18948 0.241156,0.91295 0,-0.0689 -0.08613,0.70625 -0.103352,1.70531 -0.103352,3.1867 0,0.77515 0.01722,1.17133 0.01723,0.39619 0.0689,0.91295 0.05168,0.51676 0.103353,0.82682 0.137803,0.8096 0.447861,1.60197 -1.033526,1.0163 -1.980925,1.49861 -0.947399,0.46509 -1.92925,0.46509 -2.652717,0 -2.652717,-4.44417 0,-0.51676 0.03445,-0.80959 z m 16.967059,-7.87203 q 0.68902,-1.94647 1.1541,-4.0652 0.46509,-2.13596 0.46509,-3.27284 0,-0.31005 -0.17225,-0.31005 -0.27561,0 -0.96463,1.24023 -0.68902,1.223 -1.1541,2.49769 -0.999079,2.80774 -1.550293,4.66809 -0.533989,1.84312 -0.740694,3.10058 -0.206705,1.25746 -0.206705,2.56659 0,1.11965 0.241156,1.63642 0.258382,0.51676 0.809596,0.51676 0.947399,0 2.11873,-0.82682 1.17133,-0.84405 2.11873,-2.20486 0.74069,-1.0163 1.1541,-1.0163 0.53399,0 0.53399,0.84405 0,1.84312 -1.1541,3.60012 -1.15411,1.75699 -2.98,2.85942 -1.808676,1.0852 -3.703474,1.0852 -2.325434,0 -3.789597,-1.46416 -1.464162,-1.46416 -1.464162,-3.82405 0,-1.92925 0.826821,-4.51306 0.826821,-2.60105 2.204856,-5.21931 1.395261,-2.63549 3.048903,-4.77145 1.653642,-2.13595 3.272833,-3.27283 0.99908,-0.7407 2.22208,-0.7407 0.93018,0 1.6881,0.58567 0.75791,0.56844 1.17132,1.60197 0.41342,1.03352 0.41342,2.29098 0,2.70439 -1.06798,5.28821 -1.05075,2.58381 -2.94555,4.47861 -0.89572,0.91295 -1.72255,1.42971 -0.826817,0.51677 -1.446933,0.51677 -0.60289,0 -0.60289,-0.46509 0,-0.25838 0.447861,-0.98185 0.602891,-0.9474 1.412482,-2.85942 0.0689,-0.18948 0.15503,-0.39619 0.0861,-0.22393 0.20671,-0.60289 z m 19.68867,3.9274 -0.32728,0.10335 q -1.24023,0.34451 -1.79145,0.34451 -0.67179,0 -0.67179,-0.34451 0,-0.12057 0.27561,-0.63734 0.96462,-1.46416 0.96462,-2.75607 0,-0.74069 -0.25838,-1.34358 -0.25838,-0.62012 -0.56844,-0.62012 -0.2756,0 -0.84404,0.58567 -1.60197,1.73977 -2.54937,3.56566 -0.93017,1.8259 -0.93017,3.25561 0,0.9474 0.37896,1.56752 0.39618,0.62011 0.98185,0.62011 0.49953,0 1.86034,-1.06797 1.37804,-1.06798 3.08336,-2.82498 l 0.46508,-0.37896 z m -1.03352,3.94463 v 0.0689 l -0.0689,-0.0689 q -1.60196,1.87757 -2.94555,3.08335 -1.32635,1.18856 -2.46323,1.79145 -1.11966,0.60289 -2.06706,0.60289 -1.92924,0 -3.1867,-1.29191 -1.25746,-1.29191 -1.25746,-3.27283 0,-1.22301 0.62012,-2.89388 0.62011,-1.67087 1.70532,-3.27283 1.80867,-2.61827 4.54751,-4.44416 2.82497,-1.87758 5.44324,-1.87758 2.20486,0 3.61734,0.91295 1.42971,0.89572 1.42971,2.27376 0,1.0163 -0.70624,2.15318 0.93017,0 1.17133,0.2067 0.24116,0.18948 0.24116,0.91295 0,-0.0689 -0.0861,0.70625 -0.10335,1.70531 -0.10335,3.1867 0,0.77515 0.0172,1.17133 0.0172,0.39619 0.0689,0.91295 0.0517,0.51676 0.10336,0.82682 0.1378,0.8096 0.44786,1.60197 -1.03353,1.0163 -1.98093,1.49861 -0.9474,0.46509 -1.92925,0.46509 -2.65271,0 -2.65271,-4.44417 0,-0.51676 0.0344,-0.80959 z m 10.93815,-11.6444 0.0689,-0.2067 q 1.13688,-3.20394 1.9637,-4.51307 0.39619,-0.62012 1.10243,-1.10243 1.32636,-0.84404 2.49769,-0.84404 0.68902,0 1.05075,0.31005 0.36174,0.31006 0.36174,0.89573 0,0.39618 -0.51677,1.61919 -0.87849,2.0326 -1.30913,3.80682 0.29283,0.0344 0.56844,0.10335 1.03353,0.15503 1.36081,0.36174 0.32728,0.18948 0.32728,0.70624 0,0.91295 -0.46508,1.68809 -0.46509,0.77515 -1.22301,1.13688 -0.56844,0.25838 -1.84312,0.34451 -0.22393,0.67179 -0.49954,1.84312 -0.15503,1.03353 -0.34451,2.85943 -0.10335,0.67179 -0.10335,1.25745 0,2.72162 2.63549,2.72162 h 0.10335 0.0517 q 0.31006,0 0.31006,0.10335 0,0.27561 -0.58567,0.93018 -0.58566,0.65456 -1.2919,1.1541 -0.75792,0.51677 -1.65365,0.82682 -0.89572,0.31006 -1.61919,0.31006 -1.80867,0 -2.94555,-1.223 -1.11965,-1.22301 -1.11965,-3.23839 0,-0.86127 0.29283,-2.25653 0.31006,-1.39526 0.9474,-3.73792 0.10335,-0.41341 0.22393,-0.86127 0.12058,-0.46509 0.1378,-0.55122 -0.68901,-0.0172 -0.98185,-0.29283 -0.29283,-0.27561 -0.29283,-0.89572 0,-1.0852 0.82682,-2.04983 0.84405,-0.96462 1.9637,-1.20578 z m 11.40325,16.82925 q -0.77515,-0.0517 -1.41249,-0.70624 -0.63734,-0.68902 -0.91295,-1.48139 -0.25838,-0.80959 -0.25838,-2.08427 0,-2.8422 1.05075,-6.40787 1.06798,-3.58289 2.41156,-5.18485 0.53399,-0.6718 1.48139,-0.6718 0.99908,0 1.60197,0.91295 0.62011,0.91295 0.62011,2.39434 0,2.18763 -0.63734,5.13318 -0.62012,2.92832 -1.75699,6.0978 -0.44787,1.27469 -1.10243,1.72255 -0.44786,0.2756 -1.05075,0.2756 z m 2.06705,-17.31156 q -1.61919,-0.0517 -1.61919,-1.94648 0,-0.9474 0.46508,-2.18763 0.48232,-1.25745 1.08521,-1.86034 0.31005,-0.32729 0.62011,-0.46509 0.32729,-0.1378 0.82682,-0.1378 0.86127,0 1.25746,0.43063 0.41341,0.41341 0.41341,1.39526 0,1.22301 -0.43064,2.32544 -0.41341,1.0852 -1.11965,1.77422 -0.70624,0.67179 -1.44694,0.67179 z m 11.60994,8.04428 1.03352,-1.20578 q 1.56752,-1.73977 2.48047,-2.58382 0.93017,-0.86127 1.65364,-1.24023 0.74069,-0.37896 1.49861,-0.37896 1.22301,0 1.72255,0.65457 0.49954,0.65456 0.49954,2.27376 0,0.67179 -0.13781,1.98092 -0.2067,1.73977 -0.2067,3.27283 0,1.72255 0.17225,2.79053 0.12058,0.65456 0.36173,1.30913 0.17226,0.62011 0.17226,0.84404 0,0.27561 -0.20671,0.43064 -0.53398,0.46509 -1.41248,0.8096 -0.8785,0.34451 -1.48139,0.34451 -0.98185,0 -1.79145,-0.6718 -0.79237,-0.67179 -1.24023,-1.86034 -0.43063,-1.18856 -0.43063,-2.68717 0,-0.99908 0.2067,-2.35989 l -0.0689,-0.0689 q -0.74069,0.82682 -1.20578,1.30913 -0.44786,0.48232 -0.84405,0.91295 -1.92925,2.20486 -3.27283,3.97908 -0.51676,0.68902 -0.9474,1.20578 Q 151.40577,235 150.59617,235 q -1.10242,0 -1.79144,-0.82682 -0.68902,-0.82682 -0.68902,-2.13596 0,-0.80959 0.18948,-1.98092 0.18948,-1.17133 0.49954,-2.49769 0.32728,-1.34358 0.75792,-2.75607 0.44786,-1.41249 0.96462,-2.68717 0.79237,-2.11873 1.92925,-3.30728 0.77515,-0.77515 1.87757,-0.77515 1.79145,0 1.79145,2.32544 0,1.70532 -0.70624,4.8748 z m 16.53642,3.73792 q 0.79237,-0.53399 1.20578,-1.06798 0.91295,-1.11965 1.41249,-2.56659 0.39618,-0.9474 0.62011,-2.11873 0.22394,-1.17133 0.22394,-2.18763 0,-0.9474 -0.39619,-0.9474 -0.55121,0 -1.68809,2.42879 -0.67179,1.46416 -1.10243,2.92832 -0.41341,1.44694 -0.41341,2.49769 0,0.36174 0.1378,1.03353 z m 0.0344,0.55121 q 0.18948,1.03353 1.34359,1.03353 1.29191,0 3.35896,-1.51584 1.20578,-0.8785 1.61919,-0.8785 0.51676,0 0.96462,0.27561 0.44786,0.27561 0.44786,0.56844 0,0.31006 -0.49953,0.8096 -0.91295,0.91294 -2.10151,1.79144 -1.18855,0.86127 -2.29098,1.44694 -1.10243,0.56844 -2.20486,0.91295 -1.10242,0.32728 -1.9637,0.32728 -2.15318,0 -3.44508,-1.22301 -1.29191,-1.24023 -1.29191,-3.29006 0,-1.56751 0.67179,-3.53121 0.68902,-1.98093 1.84312,-3.70347 1.36081,-2.01538 3.34174,-3.35896 2.44601,-1.61919 4.68532,-1.61919 1.61919,0 2.53214,1.03352 0.93017,1.01631 0.93017,2.80775 0,1.39526 -0.74069,2.9111 -0.72347,1.51584 -2.15318,2.9111 -1.17133,1.17133 -2.30821,1.8259 -1.11966,0.65456 -1.9637,0.65456 -0.37896,0 -0.77515,-0.18948 z" id="text4" style="font-size:35.2777px;font-family:Forte;-inkscape-font-specification:Forte;fill-rule:evenodd;stroke:#000000;stroke-width:0;stroke-linecap:round;stroke-linejoin:round;stroke-miterlimit:3.3;paint-order:stroke markers fill" aria-label="Palatine" /></svg>
